<?xml version="1.0" encoding="utf-8"?>
<!-- Generator: Adobe Illustrator 28.2.0, SVG Export Plug-In . SVG Version: 6.00 Build 0)  -->
<svg version="1.1" id="Layer_1" xmlns="http://www.w3.org/2000/svg" xmlns:xlink="http://www.w3.org/1999/xlink" x="0px" y="0px"
	 viewBox="0 0 106 32" style="enable-background:new 0 0 106 32;" xml:space="preserve">
<style type="text/css">
	.st0{fill:#FBFBFB;}
</style>
<path class="st0" d="M96.7,15.5H93c-2.4,0-3.7,1.8-3.7,4.9v11h-7.1V15.5h-3c-2.4,0-3.7,1.8-3.7,4.9v11h-7.1V9.6h7.1v3.3
	c1.2-2.6,2.7-3.3,5.1-3.3h8.7v3.3c1.2-2.6,2.7-3.3,5.1-3.3h2.4L96.7,15.5z"/>
<path class="st0" d="M67,20c0-4.6-2.7-10.8-10.9-10.8c-7.7,0-10.8,6-10.8,11.1c0,5.2,3.6,11.3,11.3,11.3c4.6,0,8.4-2.3,10-6
	l-6.3-1.8c-0.5,1.3-1.8,2.1-3.7,2.1c-2.5,0-4-1.3-4.4-3.8h14.7C67,21.7,67,21.1,67,20z M52.1,18c0.5-2.6,1.8-3.6,4-3.6
	c2.4,0,3.8,1.7,3.9,3.6H52.1z"/>
<polygon class="st0" points="32.9,31.4 39.1,31.4 46.9,9.7 39.8,9.7 36,22.4 32.2,9.6 25.1,9.6 "/>
<path class="st0" d="M4,31.4h7V15.5h6.8v15.9h7V9.6H11V8.3c0-1.4,1.1-2.4,2.6-2.4h4.1V0h-5.2C7.5,0,4,3.2,4,7.8v1.8H0v5.9h4V31.4z"
	/>
<path class="st0" d="M101.1,32c2.4,0,4.4-2,4.4-4.4s-2-4.4-4.4-4.4c-2.4,0-4.4,2-4.4,4.4S98.7,32,101.1,32z"/>
</svg>
