<?xml version="1.0" encoding="utf-8"?>
<!-- Generator: Adobe Illustrator 28.2.0, SVG Export Plug-In . SVG Version: 6.00 Build 0)  -->
<svg version="1.1" id="Layer_1" xmlns="http://www.w3.org/2000/svg" xmlns:xlink="http://www.w3.org/1999/xlink" x="0px" y="0px"
	 viewBox="0 0 24 24" style="enable-background:new 0 0 24 24;" xml:space="preserve">
<path d="M13.4,12c0,3.5-2.8,6.2-6.2,6.2S1,15.4,1,12s2.8-6.2,6.2-6.2S13.4,8.5,13.4,12"/>
<path d="M20.2,12c0,3.2-1.4,5.9-3.1,5.9S14,15.2,14,12s1.4-5.9,3.1-5.9S20.2,8.8,20.2,12"/>
<path d="M23,12c0,2.9-0.5,5.3-1.1,5.3s-1.1-2.4-1.1-5.3s0.5-5.3,1.1-5.3C22.5,6.7,23,9.1,23,12"/>
</svg>
