<?xml version="1.0" encoding="utf-8"?>
<!-- Generator: Adobe Illustrator 28.2.0, SVG Export Plug-In . SVG Version: 6.00 Build 0)  -->
<svg version="1.1" id="Layer_1" xmlns="http://www.w3.org/2000/svg" xmlns:xlink="http://www.w3.org/1999/xlink" x="0px" y="0px"
	 viewBox="0 0 118 32" style="enable-background:new 0 0 118 32;" xml:space="preserve">
<style type="text/css">
	.st0{fill:#FBFBFB;}
</style>
<path class="st0" d="M32.3,21.8c-3.3,0-5.5-2.5-6.1-3.5c0.8-6.1,3.1-8,6.1-8c3,0,5.3,2.3,5.3,5.7C37.6,19.4,35.3,21.8,32.3,21.8z
	 M32.3,6.5c-5.4,0-8.4,3.4-9.2,6.9c-1-1.8-1.7-4.2-2.3-6.4h-7.4v9c0,3.3-1.5,5.7-4.5,5.7c-3,0-4.7-2.4-4.7-5.7l0-9H0v9
	c0,2.6,0.9,5,2.5,6.7c1.6,1.8,3.9,2.7,6.5,2.7c5.2,0,8.7-3.9,8.7-9.4V10c0.5,2,1.8,5.8,4.3,9.2L19.6,32H24l1.5-9
	c0.5,0.4,1,0.8,1.6,1.1c1.5,0.9,3.1,1.4,4.8,1.5c0,0,0.3,0,0.4,0c5.3,0,9.5-4,9.5-9.5C41.8,10.6,37.6,6.5,32.3,6.5z"/>
<path class="st0" d="M93.7,9V7.1h-4.2v17.9h4.2v-7c0-4.3,0.4-7.4,6.3-7V6.8C97.3,6.6,95.1,7.2,93.7,9z"/>
<path class="st0" d="M64.2,7.1l-3.1,12.5L57.8,7.1h-5.4l-3.3,12.5L46,7.1h-4.3l4.7,17.9h5.1l3.5-12.7l3.5,12.7h5.1l5-17.9H64.2z"/>
<path class="st0" d="M78.1,21.8c-3,0-5.3-2.3-5.3-5.8c0-3.4,2.3-5.7,5.3-5.7c3,0,5.3,2.3,5.3,5.7C83.4,19.4,81,21.8,78.1,21.8z
	 M78.1,6.5c-5.3,0-9.5,4.1-9.5,9.5c0,5.4,4.2,9.5,9.5,9.5c5.3,0,9.5-4,9.5-9.5C87.6,10.6,83.4,6.5,78.1,6.5z"/>
<path class="st0" d="M106.1,16.1h1l5.9,8.8h4.8l-6.8-9.7c3.3-1.3,5.5-4.6,5.5-8.1h-4.2c0,3.9-3.1,5.3-6.2,5.3V0h-4.3v24.9h4.2
	L106.1,16.1z"/>
</svg>
