<svg width="30" height="30" viewBox="0 0 30 30" fill="none" xmlns="http://www.w3.org/2000/svg">
<mask id="mask0_1148_5375" style="mask-type:alpha" maskUnits="userSpaceOnUse" x="0" y="0" width="30" height="30">
<rect width="30" height="30" fill="#D9D9D9"/>
</mask>
<g mask="url(#mask0_1148_5375)">
<path d="M15 16.875C13.5833 16.875 12.2969 17.276 11.1406 18.0781C9.98438 18.8802 9.14583 19.9375 8.625 21.25H21.375C20.8542 19.9375 20.0156 18.8802 18.8594 18.0781C17.7031 17.276 16.4167 16.875 15 16.875ZM9.75 15L11.125 13.6875L12.4375 15L13.75 13.6875L12.4375 12.375L13.75 11L12.4375 9.6875L11.125 11L9.75 9.6875L8.4375 11L9.75 12.375L8.4375 13.6875L9.75 15ZM17.5625 15L18.875 13.6875L20.25 15L21.5625 13.6875L20.25 12.375L21.5625 11L20.25 9.6875L18.875 11L17.5625 9.6875L16.25 11L17.5625 12.375L16.25 13.6875L17.5625 15ZM15 27.5C13.2708 27.5 11.6458 27.1719 10.125 26.5156C8.60417 25.8594 7.28125 24.9688 6.15625 23.8438C5.03125 22.7188 4.14063 21.3958 3.48438 19.875C2.82812 18.3542 2.5 16.7292 2.5 15C2.5 13.2708 2.82812 11.6458 3.48438 10.125C4.14063 8.60417 5.03125 7.28125 6.15625 6.15625C7.28125 5.03125 8.60417 4.14063 10.125 3.48438C11.6458 2.82812 13.2708 2.5 15 2.5C16.7292 2.5 18.3542 2.82812 19.875 3.48438C21.3958 4.14063 22.7188 5.03125 23.8438 6.15625C24.9688 7.28125 25.8594 8.60417 26.5156 10.125C27.1719 11.6458 27.5 13.2708 27.5 15C27.5 16.7292 27.1719 18.3542 26.5156 19.875C25.8594 21.3958 24.9688 22.7188 23.8438 23.8438C22.7188 24.9688 21.3958 25.8594 19.875 26.5156C18.3542 27.1719 16.7292 27.5 15 27.5ZM15 25C17.7917 25 20.1562 24.0312 22.0938 22.0938C24.0312 20.1562 25 17.7917 25 15C25 12.2083 24.0312 9.84375 22.0938 7.90625C20.1562 5.96875 17.7917 5 15 5C12.2083 5 9.84375 5.96875 7.90625 7.90625C5.96875 9.84375 5 12.2083 5 15C5 17.7917 5.96875 20.1562 7.90625 22.0938C9.84375 24.0312 12.2083 25 15 25Z" fill="#3F5DBA"/>
</g>
</svg>
