<svg width="48" height="48" viewBox="0 0 48 48" fill="none" xmlns="http://www.w3.org/2000/svg">
<mask id="mask0_1148_5387" style="mask-type:alpha" maskUnits="userSpaceOnUse" x="0" y="0" width="48" height="48">
<rect width="48" height="48" fill="#D9D9D9"/>
</mask>
<g mask="url(#mask0_1148_5387)">
<path d="M16 24V28C16 30.2 16.7833 32.0833 18.35 33.65C19.9167 35.2167 21.8 36 24 36C26.2 36 28.0833 35.2167 29.65 33.65C31.2167 32.0833 32 30.2 32 28V24H16ZM24 33C22.6 33 21.4167 32.5167 20.45 31.55C19.4833 30.5833 19 29.4 19 28V27H29V28C29 29.4 28.5167 30.5833 27.55 31.55C26.5833 32.5167 25.4 33 24 33ZM17 14C15.7333 14 14.6083 14.4583 13.625 15.375C12.6417 16.2917 11.95 17.55 11.55 19.15L14.45 19.85C14.65 18.9833 14.9833 18.2917 15.45 17.775C15.9167 17.2583 16.4333 17 17 17C17.5667 17 18.0833 17.2583 18.55 17.775C19.0167 18.2917 19.35 18.9833 19.55 19.85L22.45 19.15C22.05 17.55 21.3583 16.2917 20.375 15.375C19.3917 14.4583 18.2667 14 17 14ZM31 14C29.7333 14 28.6083 14.4583 27.625 15.375C26.6417 16.2917 25.95 17.55 25.55 19.15L28.45 19.85C28.65 18.9833 28.9833 18.2917 29.45 17.775C29.9167 17.2583 30.4333 17 31 17C31.5667 17 32.0833 17.2583 32.55 17.775C33.0167 18.2917 33.35 18.9833 33.55 19.85L36.45 19.15C36.05 17.55 35.3583 16.2917 34.375 15.375C33.3917 14.4583 32.2667 14 31 14ZM24 44C21.2333 44 18.6333 43.475 16.2 42.425C13.7667 41.375 11.65 39.95 9.85 38.15C8.05 36.35 6.625 34.2333 5.575 31.8C4.525 29.3667 4 26.7667 4 24C4 21.2333 4.525 18.6333 5.575 16.2C6.625 13.7667 8.05 11.65 9.85 9.85C11.65 8.05 13.7667 6.625 16.2 5.575C18.6333 4.525 21.2333 4 24 4C26.7667 4 29.3667 4.525 31.8 5.575C34.2333 6.625 36.35 8.05 38.15 9.85C39.95 11.65 41.375 13.7667 42.425 16.2C43.475 18.6333 44 21.2333 44 24C44 26.7667 43.475 29.3667 42.425 31.8C41.375 34.2333 39.95 36.35 38.15 38.15C36.35 39.95 34.2333 41.375 31.8 42.425C29.3667 43.475 26.7667 44 24 44ZM24 40C28.4667 40 32.25 38.45 35.35 35.35C38.45 32.25 40 28.4667 40 24C40 19.5333 38.45 15.75 35.35 12.65C32.25 9.55 28.4667 8 24 8C19.5333 8 15.75 9.55 12.65 12.65C9.55 15.75 8 19.5333 8 24C8 28.4667 9.55 32.25 12.65 35.35C15.75 38.45 19.5333 40 24 40Z" fill="#E3FF3C"/>
</g>
</svg>
